<?xml version="1.0" encoding="UTF-8" standalone="no" ?>
<!DOCTYPE svg PUBLIC "-//W3C//DTD SVG 1.1//EN" "http://www.w3.org/Graphics/SVG/1.1/DTD/svg11.dtd">
<svg xmlns="http://www.w3.org/2000/svg" xmlns:xlink="http://www.w3.org/1999/xlink" version="1.1" width="454.6398" height="532.9568" xml:space="preserve">
<desc>Created with Fabric.js 1.6.0-rc.1</desc>
<defs></defs>
<g style="stroke: none; stroke-width: 1; stroke-dasharray: none; stroke-linecap: butt; stroke-linejoin: miter; stroke-miterlimit: 10; fill: none; fill-rule: nonzero; opacity: 1;" transform="translate(10 13.969999999999999) scale(0.98 0.98)" >
  <rect x="105.56" y="27.06" rx="0" ry="0" width="300.88" height="457.42" style="stroke: none; stroke-width: 1; stroke-dasharray: none; stroke-linecap: butt; stroke-linejoin: miter; stroke-miterlimit: 10; fill: #226b5b; fill-rule: nonzero; opacity: 1;" transform=" matrix(1 0 0 1 0 0) "/>
  <rect x="146.88" y="97.45" rx="0" ry="0" width="218.23" height="138.97" style="stroke: none; stroke-width: 1; stroke-dasharray: none; stroke-linecap: butt; stroke-linejoin: miter; stroke-miterlimit: 10; fill: #013328; fill-rule: nonzero; opacity: 1;" transform=" matrix(1 0 0 1 0 0) "/>
  <circle cx="180.143" cy="166.943" r="13.163" style="stroke: none; stroke-width: 1; stroke-dasharray: none; stroke-linecap: butt; stroke-linejoin: miter; stroke-miterlimit: 10; fill: #594333; fill-rule: nonzero; opacity: 0;" transform="  matrix(1 0 0 1 0 0) "/>
  <rect x="146.88" y="279.24" rx="0" ry="0" width="218.23" height="138.97" style="stroke: none; stroke-width: 1; stroke-dasharray: none; stroke-linecap: butt; stroke-linejoin: miter; stroke-miterlimit: 10; fill: #013328; fill-rule: nonzero; opacity: 1;" transform=" matrix(1 0 0 1 0 0) "/>
  <circle cx="180.143" cy="348.723" r="13.163" style="stroke: none; stroke-width: 1; stroke-dasharray: none; stroke-linecap: butt; stroke-linejoin: miter; stroke-miterlimit: 10; fill: #594333; fill-rule: nonzero; opacity: 0;" transform="  matrix(1 0 0 1 0 0) "/>
  <polygon points="173.39,484.48 173.39,27.06 105.56,27.06 105.56,484.48 406.44,484.48 406.44,484.48 " style="stroke: none; stroke-width: 1; stroke-dasharray: none; stroke-linecap: butt; stroke-linejoin: miter; stroke-miterlimit: 10; fill: rgb(0,0,0); fill-rule: nonzero; opacity: 0;" transform="  matrix(1 0 0 1 0 0) "/>
  <path d="M 417.82 0 H 94.18 c -9.605 0 -17.393 7.787 -17.393 17.393 v 19.336 c 0 9.605 7.787 17.393 17.393 17.393 h 323.642 c 9.605 0 17.393 -7.787 17.393 -17.393 V 17.393 C 435.213 7.787 427.427 0 417.82 0 z" style="stroke: none; stroke-width: 1; stroke-dasharray: none; stroke-linecap: butt; stroke-linejoin: miter; stroke-miterlimit: 10; fill: #735642; fill-rule: nonzero; opacity: 0;" transform=" matrix(1 0 0 1 0 0) " stroke-linecap="round" />
  <path d="M 144.621 36.729 V 17.393 C 144.621 7.786 152.407 0 162.014 0 H 94.18 c -9.605 0 -17.393 7.786 -17.393 17.393 v 19.336 c 0 9.605 7.787 17.393 17.393 17.393 h 67.834 C 152.407 54.12 144.621 46.334 144.621 36.729 z" style="stroke: none; stroke-width: 1; stroke-dasharray: none; stroke-linecap: butt; stroke-linejoin: miter; stroke-miterlimit: 10; fill: rgb(0,0,0); fill-rule: nonzero; opacity: 0;" transform=" matrix(1 0 0 1 0 0) " stroke-linecap="round" />
  <path d="M 406.442 456.963 H 105.558 c -19.921 0 -36.07 16.149 -36.07 36.07 V 512 h 373.024 v -18.968 C 442.512 473.112 426.363 456.963 406.442 456.963 z" style="stroke: none; stroke-width: 1; stroke-dasharray: none; stroke-linecap: butt; stroke-linejoin: miter; stroke-miterlimit: 10; fill: #735642; fill-rule: nonzero; opacity: 0;" transform=" matrix(1 0 0 1 0 0) " stroke-linecap="round" />
  <path d="M 173.392 456.963 h -67.834 c -19.921 0 -36.07 16.149 -36.07 36.07 V 512 h 67.834 v -18.968 C 137.322 473.112 153.471 456.963 173.392 456.963 z" style="stroke: none; stroke-width: 1; stroke-dasharray: none; stroke-linecap: butt; stroke-linejoin: miter; stroke-miterlimit: 10; fill: rgb(0,0,0); fill-rule: nonzero; opacity: 0;" transform=" matrix(1 0 0 1 0 0) " stroke-linecap="round" />
</g>
<g style="stroke: none; stroke-width: 1; stroke-dasharray: none; stroke-linecap: butt; stroke-linejoin: miter; stroke-miterlimit: 10; fill: none; fill-rule: nonzero; opacity: 1;" transform="translate(228.43000000000006 400.44) rotate(304.54) scale(0.07 0.09)" >
  <rect x="269.5" y="11.25" rx="0" ry="0" width="225.06" height="101.28" style="stroke: none; stroke-width: 1; stroke-dasharray: none; stroke-linecap: butt; stroke-linejoin: miter; stroke-miterlimit: 10; fill: #A8A8A8; fill-rule: nonzero; opacity: 1;" transform=" matrix(1 0 0 1 0 0) "/>
  <path d="M 382.031 500.747 L 382.031 500.747 c 0 0 50.637 -39.55 50.637 -67.516 V 112.527 H 331.393 v 320.703 C 331.393 461.197 382.031 500.747 382.031 500.747 z" style="stroke: none; stroke-width: 1; stroke-dasharray: none; stroke-linecap: butt; stroke-linejoin: miter; stroke-miterlimit: 10; fill: #EBEBEB; fill-rule: nonzero; opacity: 1;" transform=" matrix(1 0 0 1 0 0) " stroke-linecap="round" />
  <path d="M 118.716 500.747 L 118.716 500.747 c 0 0 50.637 -39.55 50.637 -67.516 V 112.527 H 68.079 v 320.703 C 68.079 461.197 118.716 500.747 118.716 500.747 z" style="stroke: none; stroke-width: 1; stroke-dasharray: none; stroke-linecap: butt; stroke-linejoin: miter; stroke-miterlimit: 10; fill: #EBEBEB; fill-rule: nonzero; opacity: 1;" transform=" matrix(1 0 0 1 0 0) " stroke-linecap="round" />
  <path d="M 152.475 17.023 v 40.366 H 84.958 V 17.023 c -39.333 13.904 -67.516 51.409 -67.516 95.504 l 0 0 h 202.549 l 0 0 C 219.991 68.432 191.808 30.927 152.475 17.023 z" style="stroke: none; stroke-width: 1; stroke-dasharray: none; stroke-linecap: butt; stroke-linejoin: miter; stroke-miterlimit: 10; fill: #A8A8A8; fill-rule: nonzero; opacity: 1;" transform=" matrix(1 0 0 1 0 0) " stroke-linecap="round" />
  <path d="M 494.558 0 H 269.503 c -6.215 0 -11.253 5.039 -11.253 11.253 v 101.275 c 0 6.214 5.038 11.253 11.253 11.253 h 50.637 v 309.451 c 0 32.516 49.338 71.992 54.964 76.385 c 2.036 1.59 4.481 2.384 6.926 2.384 s 4.892 -0.794 6.926 -2.384 c 5.626 -4.393 54.964 -43.868 54.964 -76.385 V 123.78 h 50.637 c 6.215 0 11.253 -5.039 11.253 -11.253 V 11.253 C 505.811 5.039 500.773 0 494.558 0 z M 421.415 308.719 l -78.769 30.924 v -32.085 l 78.769 -30.924 V 308.719 z M 342.646 363.82 l 78.769 -30.924 v 32.085 l -78.769 30.924 V 363.82 z M 421.415 252.455 l -78.769 30.924 v -32.085 l 78.769 -30.924 V 252.455 z M 382.031 486.178 c -18.201 -15.682 -39.385 -39.275 -39.385 -52.948 v -13.147 l 78.769 -30.924 v 44.07 C 421.415 446.902 400.232 470.497 382.031 486.178 z M 421.415 196.192 l -78.769 30.924 V 123.78 h 78.769 V 196.192 z M 280.756 101.275 V 22.505 h 202.549 v 28.132 h -70.892 c -6.215 0 -11.253 5.039 -11.253 11.253 s 5.038 11.253 11.253 11.253 h 70.892 v 28.132 H 280.756 z" style="stroke: none; stroke-width: 1; stroke-dasharray: none; stroke-linecap: butt; stroke-linejoin: miter; stroke-miterlimit: 10; fill: #231F20; fill-rule: nonzero; opacity: 1;" transform=" matrix(1 0 0 1 0 0) " stroke-linecap="round" />
  <path d="M 156.225 6.414 c -3.443 -1.215 -7.265 -0.686 -10.247 1.422 c -2.982 2.11 -4.755 5.535 -4.755 9.188 v 29.112 H 96.212 V 17.024 c 0 -3.653 -1.773 -7.078 -4.755 -9.188 c -2.983 -2.109 -6.803 -2.638 -10.249 -1.422 C 36.337 22.276 6.189 64.918 6.189 112.527 c 0 6.214 5.038 11.253 11.253 11.253 h 39.385 v 309.451 c 0 32.516 49.338 71.992 54.964 76.385 c 2.036 1.59 4.481 2.384 6.926 2.384 c 2.445 0 4.892 -0.794 6.926 -2.384 c 5.626 -4.393 54.964 -43.868 54.964 -76.385 V 123.78 h 39.385 c 6.215 0 11.253 -5.039 11.253 -11.253 C 231.244 64.918 201.096 22.276 156.225 6.414 z M 158.101 308.719 l -78.769 30.924 v -32.085 l 78.769 -30.924 V 308.719 z M 79.332 363.82 l 78.769 -30.924 v 32.085 l -78.769 30.924 V 363.82 z M 158.101 252.455 l -78.769 30.924 v -32.085 l 78.769 -30.924 V 252.455 z M 118.716 486.178 c -18.201 -15.682 -39.385 -39.275 -39.385 -52.948 v -13.147 l 78.769 -30.924 v 44.07 C 158.101 446.902 136.918 470.497 118.716 486.178 z M 158.101 196.192 l -78.769 30.924 V 123.78 h 78.769 V 196.192 z M 29.401 101.275 c 3.531 -27.977 20.058 -52.709 44.304 -66.727 v 22.841 c 0 6.214 5.038 11.253 11.253 11.253 h 67.516 c 6.215 0 11.253 -5.039 11.253 -11.253 V 34.548 c 24.246 14.018 40.773 38.75 44.304 66.727 H 29.401 z" style="stroke: none; stroke-width: 1; stroke-dasharray: none; stroke-linecap: butt; stroke-linejoin: miter; stroke-miterlimit: 10; fill: #231F20; fill-rule: nonzero; opacity: 1;" transform=" matrix(1 0 0 1 0 0) " stroke-linecap="round" />
  <path d="M 367.402 50.637 h -1.125 c -6.215 0 -11.253 5.039 -11.253 11.253 s 5.038 11.253 11.253 11.253 h 1.125 c 6.215 0 11.253 -5.039 11.253 -11.253 S 373.617 50.637 367.402 50.637 z" style="stroke: none; stroke-width: 1; stroke-dasharray: none; stroke-linecap: butt; stroke-linejoin: miter; stroke-miterlimit: 10; fill: #231F20; fill-rule: nonzero; opacity: 1;" transform=" matrix(1 0 0 1 0 0) " stroke-linecap="round" />
</g>
<g style="stroke: none; stroke-width: 1; stroke-dasharray: none; stroke-linecap: butt; stroke-linejoin: miter; stroke-miterlimit: 10; fill: none; fill-rule: nonzero; opacity: 1;" transform="translate(309.63 365.91999999999996) scale(0.1 0.1)" >
  <rect x="11.77" y="281.82" rx="0" ry="0" width="488.46" height="64.74" style="stroke: none; stroke-width: 1; stroke-dasharray: none; stroke-linecap: butt; stroke-linejoin: miter; stroke-miterlimit: 10; fill: #edb418; fill-rule: nonzero; opacity: 1;" transform=" matrix(1 0 0 1 0 0) "/>
  <rect x="44.14" y="346.56" rx="0" ry="0" width="423.72" height="153.01" style="stroke: none; stroke-width: 1; stroke-dasharray: none; stroke-linecap: butt; stroke-linejoin: miter; stroke-miterlimit: 10; fill: #edb418; fill-rule: nonzero; opacity: 1;" transform=" matrix(1 0 0 1 0 0) "/>
  <rect x="203.03" y="346.56" rx="0" ry="0" width="105.93" height="52.97" style="stroke: none; stroke-width: 1; stroke-dasharray: none; stroke-linecap: butt; stroke-linejoin: miter; stroke-miterlimit: 10; fill: #013328; fill-rule: nonzero; opacity: 1;" transform=" matrix(1 0 0 1 0 0) "/>
  <path d="M 463.439 179.715 c -58.328 -33.675 -116.656 -67.351 -174.984 -101.026 c 12.751 -22.085 25.501 -44.171 38.253 -66.256 c 61.094 26.728 110.93 79.308 157.329 131.606 C 477.171 155.932 470.306 167.824 463.439 179.715 z" style="stroke: none; stroke-width: 1; stroke-dasharray: none; stroke-linecap: butt; stroke-linejoin: miter; stroke-miterlimit: 10; fill: #A8A8A8; fill-rule: nonzero; opacity: 1;" transform=" matrix(1 0 0 1 0 0) " stroke-linecap="round" />
  <polygon points="389.2,136.85 345.43,212.66 305.5,281.82 237.54,281.82 253.54,254.13 338.24,107.42 " style="stroke: none; stroke-width: 1; stroke-dasharray: none; stroke-linecap: butt; stroke-linejoin: miter; stroke-miterlimit: 10; fill: #013328; fill-rule: nonzero; opacity: 1;" transform="  matrix(1 0 0 1 0 0) "/>
  <polygon points="253.54,254.13 237.54,281.82 215.43,281.82 123.53,145.58 106.34,135.87 76.51,91.64 130.17,55.45 160,99.68 162.56,119.25 " style="stroke: none; stroke-width: 1; stroke-dasharray: none; stroke-linecap: butt; stroke-linejoin: miter; stroke-miterlimit: 10; fill: #013328; fill-rule: nonzero; opacity: 1;" transform="  matrix(1 0 0 1 0 0) "/>
  <polygon points="413.92,212.66 413.92,281.82 305.5,281.82 345.43,212.66 " style="stroke: none; stroke-width: 1; stroke-dasharray: none; stroke-linecap: butt; stroke-linejoin: miter; stroke-miterlimit: 10; fill: #013328; fill-rule: nonzero; opacity: 1;" transform="  matrix(1 0 0 1 0 0) "/>
  <path d="M 500.23 270.051 h -74.54 V 212.66 c 0 -6.501 -5.271 -11.77 -11.77 -11.77 h -48.1 l 27.688 -47.959 l 64.046 36.977 c 1.804 1.043 3.837 1.577 5.885 1.577 c 1.019 0 2.044 -0.133 3.046 -0.401 c 3.017 -0.809 5.586 -2.78 7.147 -5.484 l 20.598 -35.678 c 2.533 -4.388 1.975 -9.906 -1.389 -13.696 C 445.913 83.333 394.793 29.371 331.424 1.649 c -5.491 -2.402 -11.913 -0.294 -14.91 4.899 l -38.253 66.256 c -3.251 5.63 -1.322 12.828 4.308 16.078 l 39.586 22.855 l -69.394 120.189 l -78.893 -116.953 l -2.194 -16.818 c -0.237 -1.813 -0.892 -3.544 -1.914 -5.059 l -29.837 -44.232 c -3.636 -5.39 -10.952 -6.81 -16.339 -3.176 l -53.66 36.193 c -2.588 1.746 -4.377 4.448 -4.973 7.512 c -0.596 3.064 0.051 6.241 1.796 8.828 l 29.837 44.232 c 1.02 1.512 2.379 2.767 3.968 3.665 l 14.769 8.345 l 77.97 115.587 H 147.67 l -46.458 -95.485 c -2.845 -5.845 -9.89 -8.277 -15.733 -5.434 c -5.845 2.845 -8.278 9.888 -5.434 15.733 l 41.447 85.186 H 91.712 l -18.556 -42.205 c -2.618 -5.951 -9.566 -8.653 -15.512 -6.037 c -5.951 2.617 -8.655 9.561 -6.038 15.512 l 14.39 32.732 H 11.77 c -6.499 0 -11.77 5.27 -11.77 11.77 v 64.736 c 0 6.501 5.271 11.77 11.77 11.77 h 20.598 v 141.241 c 0 6.501 5.271 11.77 11.77 11.77 h 423.724 c 6.499 0 11.77 -5.269 11.77 -11.77 V 358.328 h 20.598 c 6.499 0 11.77 -5.269 11.77 -11.77 v -64.736 C 512 275.32 506.729 270.051 500.23 270.051 z M 402.15 224.43 v 45.621 h -76.259 l 26.338 -45.621 H 402.15 z M 331.515 27.647 c 52.385 25.827 96.918 71.78 138.08 117.868 l -10.464 18.122 L 304.533 74.381 L 331.515 27.647 z M 373.122 141.161 l -74.412 128.89 h -40.774 l 5.798 -10.038 c 0.005 -0.008 0.007 -0.016 0.012 -0.025 l 78.799 -136.482 L 373.122 141.161 z M 133.285 139 c -1.02 -1.512 -2.379 -2.767 -3.968 -3.665 l -14.769 -8.345 L 92.846 94.815 l 34.144 -23.029 l 21.702 32.171 l 2.194 16.818 c 0.237 1.813 0.892 3.544 1.914 5.059 l 86.868 128.772 l -8.917 15.444 h -9.063 L 133.285 139 z M 456.092 438.952 h -48.846 c -6.499 0 -11.77 5.269 -11.77 11.77 c 0 6.501 5.271 11.77 11.77 11.77 h 48.846 v 25.306 H 55.908 v -25.306 h 48.846 c 6.499 0 11.77 -5.269 11.77 -11.77 c 0 -6.501 -5.271 -11.77 -11.77 -11.77 H 55.908 v -80.625 h 135.356 v 41.195 c 0 6.501 5.271 11.77 11.77 11.77 h 105.931 c 6.499 0 11.77 -5.269 11.77 -11.77 v -41.195 h 135.356 V 438.952 z M 214.805 358.327 h 82.391 v 29.425 h -82.391 V 358.327 z M 488.46 334.787 H 23.54 v -41.195 h 464.92 V 334.787 z" style="stroke: none; stroke-width: 1; stroke-dasharray: none; stroke-linecap: butt; stroke-linejoin: miter; stroke-miterlimit: 10; fill: #231F20; fill-rule: nonzero; opacity: 1;" transform=" matrix(1 0 0 1 0 0) " stroke-linecap="round" />
  <path d="M 149.677 438.952 H 148.5 c -6.499 0 -11.77 5.269 -11.77 11.77 c 0 6.501 5.271 11.77 11.77 11.77 h 1.177 c 6.499 0 11.77 -5.269 11.77 -11.77 C 161.447 444.222 156.176 438.952 149.677 438.952 z" style="stroke: none; stroke-width: 1; stroke-dasharray: none; stroke-linecap: butt; stroke-linejoin: miter; stroke-miterlimit: 10; fill: #231F20; fill-rule: nonzero; opacity: 1;" transform=" matrix(1 0 0 1 0 0) " stroke-linecap="round" />
  <path d="M 362.323 462.492 h 1.177 c 6.499 0 11.77 -5.269 11.77 -11.77 c 0 -6.501 -5.271 -11.77 -11.77 -11.77 h -1.177 c -6.499 0 -11.77 5.269 -11.77 11.77 C 350.553 457.223 355.824 462.492 362.323 462.492 z" style="stroke: none; stroke-width: 1; stroke-dasharray: none; stroke-linecap: butt; stroke-linejoin: miter; stroke-miterlimit: 10; fill: #231F20; fill-rule: nonzero; opacity: 1;" transform=" matrix(1 0 0 1 0 0) " stroke-linecap="round" />
</g>
<g style="stroke: none; stroke-width: 1; stroke-dasharray: none; stroke-linecap: butt; stroke-linejoin: miter; stroke-miterlimit: 10; fill: none; fill-rule: nonzero; opacity: 1;" transform="translate(246.51 185.13) rotate(309.05) scale(0.14 0.14)" >
  <path d="M 46.83 35.454 l 27.57 59.62 l -29.17 13.41 v -0.01 C 30.27 86.734 30.41 57.234 46.83 35.454 z" style="stroke: none; stroke-width: 1; stroke-dasharray: none; stroke-linecap: butt; stroke-linejoin: miter; stroke-miterlimit: 10; fill: #B3B3B3; fill-rule: nonzero; opacity: 1;" transform=" matrix(1 0 0 1 0 0) " stroke-linecap="round" />
  <polygon points="85.12,116.17 97.18,141.74 84.23,147.84 72.03,121.96 84.97,115.86 " style="stroke: none; stroke-width: 1; stroke-dasharray: none; stroke-linecap: butt; stroke-linejoin: miter; stroke-miterlimit: 10; fill: #808080; fill-rule: nonzero; opacity: 1;" transform="  matrix(1 0 0 1 0 0) "/>
  <polygon points="110.48,103.83 122.68,129.71 109.74,135.81 109.59,135.5 97.53,109.94 " style="stroke: none; stroke-width: 1; stroke-dasharray: none; stroke-linecap: butt; stroke-linejoin: miter; stroke-miterlimit: 10; fill: #808080; fill-rule: nonzero; opacity: 1;" transform="  matrix(1 0 0 1 0 0) "/>
  <polygon points="109.59,135.5 109.74,135.81 97.18,141.74 85.12,116.17 84.97,115.86 97.53,109.94 " style="stroke: none; stroke-width: 1; stroke-dasharray: none; stroke-linecap: butt; stroke-linejoin: miter; stroke-miterlimit: 10; fill: #999999; fill-rule: nonzero; opacity: 1;" transform="  matrix(1 0 0 1 0 0) "/>
  <path d="M 97.18 141.744 l 12.56 -5.93 l 12.94 -6.1 l -12.2 -25.88 l -12.95 6.11 l -12.56 5.92 l -12.94 6.1 l 12.2 25.88 L 97.18 141.744 z M 155.39 76.794 c 0 4.96 -0.41 9.84 -1.68 14.43 c -0.92 3.35 -5.14 13.99 -5.14 13.99 l -0.02 0.05 l -23.2 56.88 c -5.56 13.63 -8.65 28.14 -9.12 42.85 l -1.91 -0.07 h -44.9 c -2.78 -18.6 -9.76 -36.41 -20.52 -52.03 l -24.09 -35.03 l 15.52 -7.13 l 4.9 -2.25 l 29.17 -13.41 l 49.03 -22.54 l -26.67 -58.15 C 129.48 16.394 155.39 43.564 155.39 76.794 z" style="stroke: none; stroke-width: 1; stroke-dasharray: none; stroke-linecap: butt; stroke-linejoin: miter; stroke-miterlimit: 10; fill: #CCCCCC; fill-rule: nonzero; opacity: 1;" transform=" matrix(1 0 0 1 0 0) " stroke-linecap="round" />
  <path d="M 116.15 375.974 v 30.45 c 0 12.53 -10.15 22.69 -22.68 22.69 c -6.27 0 -11.93 -2.54 -16.04 -6.65 c -4.1 -4.1 -6.64 -9.77 -6.64 -16.04 v -30.45 h 1.22 h 41.69 H 116.15 z M 103.03 405.734 c 0 -5.19 -4.2 -9.4 -9.4 -9.4 c -5.19 0 -9.4 4.21 -9.4 9.4 s 4.21 9.4 9.4 9.4 C 98.83 415.134 103.03 410.924 103.03 405.734 z" style="stroke: none; stroke-width: 1; stroke-dasharray: none; stroke-linecap: butt; stroke-linejoin: miter; stroke-miterlimit: 10; fill: #999999; fill-rule: nonzero; opacity: 1;" transform=" matrix(1 0 0 1 0 0) " stroke-linecap="round" />
  <path d="M 114.32 204.924 l 1.91 0.07 c -0.06 1.35 -0.08 2.7 -0.08 4.06 v 11.2 h -2.45 H 72.01 l -1.26 0.04 c -0.12 -5.16 -0.57 -10.29 -1.33 -15.37 H 114.32 z" style="stroke: none; stroke-width: 1; stroke-dasharray: none; stroke-linecap: butt; stroke-linejoin: miter; stroke-miterlimit: 10; fill: #999999; fill-rule: nonzero; opacity: 1;" transform=" matrix(1 0 0 1 0 0) " stroke-linecap="round" />
  <path d="M 116.15 220.254 v 155.72 h -2.45 H 72.01 h -1.22 v -152.67 c 0 -1 -0.01 -2 -0.04 -3.01 l 1.26 -0.04 h 41.69 H 116.15 z" style="stroke: none; stroke-width: 1; stroke-dasharray: none; stroke-linecap: butt; stroke-linejoin: miter; stroke-miterlimit: 10; fill: #edb419; fill-rule: nonzero; opacity: 1;" transform=" matrix(1 0 0 1 0 0) " stroke-linecap="round" />
  <path d="M 302.184 44.604 c 1.05 16.29 -6.12 30.95 -17.76 40.25 c -16.08 12.85 -25.14 32.57 -25.14 53.15 v 204.34 c 0 11.07 2.75 21.93 7.8 31.78 c 3.33 6.49 5.2 13.84 5.2 21.63 c 0 26.74 -22.1 48.31 -49.03 47.46 l 13.98 -26.66 c 5.39 -10.27 1.43 -22.96 -8.85 -28.35 c -3.11 -1.63 -6.45 -2.41 -9.74 -2.41 c -7.55 0 -14.85 4.09 -18.61 11.25 l -13.82 26.36 c -5.05 -7.01 -8.24 -15.43 -8.82 -24.52 c -1.05 -16.28 6.12 -30.95 17.76 -40.25 c 16.08 -12.85 25.13 -32.56 25.13 -53.15 v -204.34 c 0 -11.06 -2.74 -21.93 -7.79 -31.78 c -3.33 -6.48 -5.21 -13.83 -5.21 -21.62 c 0 -26.75 22.11 -48.32 49.04 -47.47 l -13.98 26.66 c -5.39 10.27 -1.43 22.97 8.84 28.35 c 3.12 1.63 6.45 2.41 9.74 2.41 c 7.56 0 14.86 -4.09 18.62 -11.25 l 13.82 -26.36 C 298.404 27.094 301.604 35.514 302.184 44.604 z M 247.784 310.744 v -178 c 0 -4.42 -3.58 -8 -8 -8 c -2.2 0 -4.2 0.89 -5.65 2.34 c -1.45 1.45 -2.35 3.45 -2.35 5.66 v 178 c 0 4.42 3.59 8 8 8 C 244.204 318.744 247.784 315.164 247.784 310.744 z" style="stroke: none; stroke-width: 1; stroke-dasharray: none; stroke-linecap: butt; stroke-linejoin: miter; stroke-miterlimit: 10; fill: #CCCCCC; fill-rule: nonzero; opacity: 1;" transform=" matrix(1 0 0 1 0 0) " stroke-linecap="round" />
  <path d="M 247.784 132.744 v 178 c 0 4.42 -3.58 8 -8 8 c -4.41 0 -8 -3.58 -8 -8 v -178 c 0 -2.21 0.9 -4.21 2.35 -5.66 c 1.45 -1.45 3.45 -2.34 5.65 -2.34 C 244.204 124.744 247.784 128.324 247.784 132.744 z" style="stroke: none; stroke-width: 1; stroke-dasharray: none; stroke-linecap: butt; stroke-linejoin: miter; stroke-miterlimit: 10; fill: #999999; fill-rule: nonzero; opacity: 1;" transform=" matrix(1 0 0 1 0 0) " stroke-linecap="round" />
  <polygon points="418.43,285.36 418.43,295.09 401.93,302.59 357.93,302.59 341.43,295.09 341.43,285.36 371.93,285.36 387.93,285.36 " style="stroke: none; stroke-width: 1; stroke-dasharray: none; stroke-linecap: butt; stroke-linejoin: miter; stroke-miterlimit: 10; fill: #edb419; fill-rule: nonzero; opacity: 1;" transform="  matrix(1 0 0 1 0 0) "/>
  <path d="M 401.927 316.594 v 97.5 c 0 1.47 -0.14 2.9 -0.42 4.29 l -1.58 -0.29 h -40.5 l -1.09 0.2 c -0.27 -1.36 -0.41 -2.76 -0.41 -4.2 v -97.5 h 1.5 h 40.5 H 401.927 z" style="stroke: none; stroke-width: 1; stroke-dasharray: none; stroke-linecap: butt; stroke-linejoin: miter; stroke-miterlimit: 10; fill: #edb419; fill-rule: nonzero; opacity: 1;" transform=" matrix(1 0 0 1 0 0) " stroke-linecap="round" />
  <polygon points="401.93,302.59 401.93,316.59 399.93,316.59 359.43,316.59 357.93,316.59 357.93,302.59 " style="stroke: none; stroke-width: 1; stroke-dasharray: none; stroke-linecap: butt; stroke-linejoin: miter; stroke-miterlimit: 10; fill: #999999; fill-rule: nonzero; opacity: 1;" transform="  matrix(1 0 0 1 0 0) "/>
  <path d="M 399.927 418.094 l 1.58 0.29 c -0.86 4.36 -3 8.25 -6.02 11.27 c -3.98 3.98 -9.48 6.44 -15.56 6.44 c -10.71 0 -19.64 -7.66 -21.59 -17.8 l 1.09 -0.2 H 399.927 z" style="stroke: none; stroke-width: 1; stroke-dasharray: none; stroke-linecap: butt; stroke-linejoin: miter; stroke-miterlimit: 10; fill: #999999; fill-rule: nonzero; opacity: 1;" transform=" matrix(1 0 0 1 0 0) " stroke-linecap="round" />
  <polygon points="388.47,31.69 397.01,63.01 388.47,77.8 387.93,77.8 387.93,285.36 371.93,285.36 371.93,77.8 371.39,77.8 362.85,63.01 371.39,31.69 " style="stroke: none; stroke-width: 1; stroke-dasharray: none; stroke-linecap: butt; stroke-linejoin: miter; stroke-miterlimit: 10; fill: #CCCCCC; fill-rule: nonzero; opacity: 1;" transform="  matrix(1 0 0 1 0 0) "/>
</g>
<g style="stroke: none; stroke-width: 1; stroke-dasharray: none; stroke-linecap: butt; stroke-linejoin: miter; stroke-miterlimit: 10; fill: none; fill-rule: nonzero; opacity: 1;" transform="translate(234.61 98.81000000000003) rotate(37.12) scale(0.14 0.14)" >
  <circle cx="256" cy="256" r="256" style="stroke: none; stroke-width: 1; stroke-dasharray: none; stroke-linecap: butt; stroke-linejoin: miter; stroke-miterlimit: 10; fill: #65BA70; fill-rule: nonzero; opacity: 0;" transform="  matrix(1 0 0 1 0 0) "/>
  <path d="M 256.943 511.988 C 397.893 511.479 512 397.069 512 256 c 0 -16.191 -1.52 -32.026 -4.394 -47.382 L 337.018 38.03 l 0 0 c -7.053 0 -156.156 0 -163.203 0 c 0 7.698 0 227.564 0 242.853 h 56.614 v 204.59 L 256.943 511.988 z" style="stroke: none; stroke-width: 1; stroke-dasharray: none; stroke-linecap: butt; stroke-linejoin: miter; stroke-miterlimit: 10; fill: #488E53; fill-rule: nonzero; opacity: 0;" transform=" matrix(1 0 0 1 0 0) " stroke-linecap="round" />
  <polygon points="337.02,225.44 173.81,225.44 173.81,280.88 230.43,280.88 230.43,485.47 280.4,485.47 280.4,280.88 337.02,280.88 " style="stroke: none; stroke-width: 1; stroke-dasharray: none; stroke-linecap: butt; stroke-linejoin: miter; stroke-miterlimit: 10; fill: #edb418; fill-rule: nonzero; opacity: 1;" transform="  matrix(1 0 0 1 0 0) "/>
  <rect x="173.81" y="187.96" rx="0" ry="0" width="163.21" height="37.48" style="stroke: none; stroke-width: 1; stroke-dasharray: none; stroke-linecap: butt; stroke-linejoin: miter; stroke-miterlimit: 10; fill: #FFFFFF; fill-rule: nonzero; opacity: 1;" transform=" matrix(1 0 0 1 0 0) "/>
  <rect x="173.81" y="38.03" rx="0" ry="0" width="163.21" height="149.93" style="stroke: none; stroke-width: 1; stroke-dasharray: none; stroke-linecap: butt; stroke-linejoin: miter; stroke-miterlimit: 10; fill: #eb3e05; fill-rule: nonzero; opacity: 1;" transform=" matrix(1 0 0 1 0 0) "/>
  <rect x="256.56" y="38.03" rx="0" ry="0" width="80.47" height="149.93" style="stroke: none; stroke-width: 1; stroke-dasharray: none; stroke-linecap: butt; stroke-linejoin: miter; stroke-miterlimit: 10; fill: #9e2a00; fill-rule: nonzero; opacity: 1;" transform=" matrix(1 0 0 1 0 0) "/>
  <rect x="256.56" y="187.96" rx="0" ry="0" width="80.47" height="37.48" style="stroke: none; stroke-width: 1; stroke-dasharray: none; stroke-linecap: butt; stroke-linejoin: miter; stroke-miterlimit: 10; fill: #C6C5CA; fill-rule: nonzero; opacity: 1;" transform=" matrix(1 0 0 1 0 0) "/>
  <polygon points="256.55,225.44 256.55,485.47 280.4,485.47 280.4,280.88 337.02,280.88 337.02,225.44 " style="stroke: none; stroke-width: 1; stroke-dasharray: none; stroke-linecap: butt; stroke-linejoin: miter; stroke-miterlimit: 10; fill: #edb418; fill-rule: nonzero; opacity: 1;" transform="  matrix(1 0 0 1 0 0) "/>
</g>
<g style="stroke: none; stroke-width: 1; stroke-dasharray: none; stroke-linecap: butt; stroke-linejoin: miter; stroke-miterlimit: 10; fill: none; fill-rule: nonzero; opacity: 1;" transform="translate(179.29000000000008 107.77999999999999) rotate(34.29) scale(0.17 0.17)" >
  <circle cx="256" cy="256" r="256" style="stroke: none; stroke-width: 1; stroke-dasharray: none; stroke-linecap: butt; stroke-linejoin: miter; stroke-miterlimit: 10; fill: #EA971E; fill-rule: nonzero; opacity: 0;" transform="  matrix(1 0 0 1 0 0) "/>
  <path d="M 251.405 23.088 c -34.016 0 -61.591 27.575 -61.591 61.591 H 176.44 v 20.97 l 34.157 34.157 h -38.419 v 20.97 l 0 0 l 3.738 3.738 l 21.795 318.808 l 26.743 26.743 C 234.793 511.334 245.318 512 256 512 c 140.669 0 254.819 -113.46 255.973 -253.856 L 294.955 41.126 l 0 0 C 283.809 29.981 268.413 23.088 251.405 23.088 z" style="stroke: none; stroke-width: 1; stroke-dasharray: none; stroke-linecap: butt; stroke-linejoin: miter; stroke-miterlimit: 10; fill: #A16125; fill-rule: nonzero; opacity: 0;" transform=" matrix(1 0 0 1 0 0) " stroke-linecap="round" />
  <rect x="261.83" y="84.68" rx="0" ry="0" width="51.02" height="271.53" style="stroke: none; stroke-width: 1; stroke-dasharray: none; stroke-linecap: butt; stroke-linejoin: miter; stroke-miterlimit: 10; fill: #57565C; fill-rule: nonzero; opacity: 1;" transform=" matrix(1 0 0 1 0 0) "/>
  <rect x="250.02" y="140.02" rx="0" ry="0" width="89.2" height="136.63" style="stroke: none; stroke-width: 1; stroke-dasharray: none; stroke-linecap: butt; stroke-linejoin: miter; stroke-miterlimit: 10; fill: #edb418; fill-rule: nonzero; opacity: 1;" transform=" matrix(1 0 0 1 0 0) "/>
  <rect x="294.33" y="140.02" rx="0" ry="0" width="44.89" height="136.63" style="stroke: none; stroke-width: 1; stroke-dasharray: none; stroke-linecap: butt; stroke-linejoin: miter; stroke-miterlimit: 10; fill: #edb418; fill-rule: nonzero; opacity: 1;" transform=" matrix(1 0 0 1 0 0) "/>
  <polygon points="250.02,483.32 197.71,483.32 175.66,160.78 250.02,160.78 " style="stroke: none; stroke-width: 1; stroke-dasharray: none; stroke-linecap: butt; stroke-linejoin: miter; stroke-miterlimit: 10; fill: #edb418; fill-rule: nonzero; opacity: 1;" transform="  matrix(1 0 0 1 0 0) "/>
  <path d="M 251.405 23.088 c -34.016 0 -61.591 27.576 -61.591 61.591 h 123.182 C 312.997 50.664 285.421 23.088 251.405 23.088 z" style="stroke: none; stroke-width: 1; stroke-dasharray: none; stroke-linecap: butt; stroke-linejoin: miter; stroke-miterlimit: 10; fill: #57565C; fill-rule: nonzero; opacity: 1;" transform=" matrix(1 0 0 1 0 0) " stroke-linecap="round" />
  <rect x="250" y="276.65" rx="0" ry="0" width="76.25" height="20.97" style="stroke: none; stroke-width: 1; stroke-dasharray: none; stroke-linecap: butt; stroke-linejoin: miter; stroke-miterlimit: 10; fill: #3E3E42; fill-rule: nonzero; opacity: 1;" transform=" matrix(1 0 0 1 0 0) "/>
  <rect x="294.38" y="276.65" rx="0" ry="0" width="31.88" height="20.97" style="stroke: none; stroke-width: 1; stroke-dasharray: none; stroke-linecap: butt; stroke-linejoin: miter; stroke-miterlimit: 10; fill: #2D2E30; fill-rule: nonzero; opacity: 1;" transform=" matrix(1 0 0 1 0 0) "/>
  <rect x="176.44" y="84.68" rx="0" ry="0" width="77.83" height="20.97" style="stroke: none; stroke-width: 1; stroke-dasharray: none; stroke-linecap: butt; stroke-linejoin: miter; stroke-miterlimit: 10; fill: #3E3E42; fill-rule: nonzero; opacity: 1;" transform=" matrix(1 0 0 1 0 0) "/>
  <rect x="172.18" y="139.81" rx="0" ry="0" width="77.83" height="20.97" style="stroke: none; stroke-width: 1; stroke-dasharray: none; stroke-linecap: butt; stroke-linejoin: miter; stroke-miterlimit: 10; fill: #3E3E42; fill-rule: nonzero; opacity: 1;" transform=" matrix(1 0 0 1 0 0) "/>
  <rect x="215.27" y="139.81" rx="0" ry="0" width="34.73" height="20.97" style="stroke: none; stroke-width: 1; stroke-dasharray: none; stroke-linecap: butt; stroke-linejoin: miter; stroke-miterlimit: 10; fill: #2D2E30; fill-rule: nonzero; opacity: 1;" transform=" matrix(1 0 0 1 0 0) "/>
  <rect x="215.35" y="160.78" rx="0" ry="0" width="34.66" height="322.55" style="stroke: none; stroke-width: 1; stroke-dasharray: none; stroke-linecap: butt; stroke-linejoin: miter; stroke-miterlimit: 10; fill: #edb418; fill-rule: nonzero; opacity: 1;" transform=" matrix(1 0 0 1 0 0) "/>
</g>
<g style="stroke: none; stroke-width: 1; stroke-dasharray: none; stroke-linecap: butt; stroke-linejoin: miter; stroke-miterlimit: 10; fill: none; fill-rule: nonzero; opacity: 1;" transform="translate(299.23 173.57999999999998) rotate(269.32) scale(0.09 0.09)" >
  <path d="M 271 394.6 c 80.6 -84.1 118.4 -177.1 118.4 -177.1 l -32.9 -26.1 l -2.5 -2 l -32.9 -26.1 c 0 0 -81.8 58.2 -145.2 155.9 C 112.5 417 17.8 514.8 17.8 514.8 l -1.7 22 l 38.7 30.6 l 2.5 2 L 95.9 600 l 21 -6.7 C 116.9 593.3 190.4 478.7 271 394.6 L 271 394.6 z" style="stroke: none; stroke-width: 1; stroke-dasharray: none; stroke-linecap: butt; stroke-linejoin: miter; stroke-miterlimit: 10; fill: #9e2a00; fill-rule: nonzero; opacity: 1;" transform=" matrix(1 0 0 1 0 0) " stroke-linecap="round" />
  <path d="M 578.4 162.8 l -30 -23.7 c -7 -5.6 -18.1 -3.4 -24.6 4.8 l 0.1 -0.1 c 0 0 -25.1 -10 -33.3 -29.9 c -0.1 -14.8 -16.3 -34.1 -36 -49 l 0 0 l -0.5 -0.3 c -4.9 -3.7 -10.1 -7.2 -15.5 -10.3 l -49.7 -33.2 c 0 0 -90.5 -68.5 -177.6 41.5 c 0 0 -0.2 13.8 13.3 10.6 c 0 0 81.6 -45.7 118.4 35.8 c 0 1.3 0.2 2.6 0.4 3.8 c 1 4.5 3.2 9.4 6.4 14.5 l -28.7 36.3 l 67.9 53.8 l 27.9 -35.2 c 6.4 2.2 12.3 3.2 17.4 2.6 c 1.1 -0.1 2.1 -0.3 3.1 -0.6 c 20 4.6 34.4 25.1 34.4 25.1 l -3.6 4.5 c -6.5 8.3 -6.1 19.5 0.9 25 l 30 23.7 c 7 5.6 18.1 3.4 24.6 -4.8 l 55.3 -69.9 C 585.8 179.6 585.4 168.4 578.4 162.8 z" style="stroke: none; stroke-width: 1; stroke-dasharray: none; stroke-linecap: butt; stroke-linejoin: miter; stroke-miterlimit: 10; fill: #edb412; fill-rule: nonzero; opacity: 1;" transform=" matrix(1 0 0 1 0 0) " stroke-linecap="round" />
</g>
<g style="stroke: none; stroke-width: 1; stroke-dasharray: none; stroke-linecap: butt; stroke-linejoin: miter; stroke-miterlimit: 10; fill: none; fill-rule: nonzero; opacity: 1;" transform="translate(158.01999999999998 272.09000000000003) scale(0.17 0.26)" >
  <circle cx="256" cy="256" r="256" style="stroke: none; stroke-width: 1; stroke-dasharray: none; stroke-linecap: butt; stroke-linejoin: miter; stroke-miterlimit: 10; fill: #65BA70; fill-rule: nonzero; opacity: 0;" transform="  matrix(1 0 0 1 0 0) "/>
  <path d="M 435.942 105.588 L 435.942 105.588 H 142.84 v 42.11 H 82.179 v 129.485 h 159.908 v 48.788 h -16.882 v 160.278 l 25.687 25.687 c 1.7 0.033 3.4 0.065 5.108 0.065 c 141.384 0 256 -114.615 256 -256 c 0 -32.066 -5.913 -62.746 -16.679 -91.034 L 435.942 105.588 z" style="stroke: none; stroke-width: 1; stroke-dasharray: none; stroke-linecap: butt; stroke-linejoin: miter; stroke-miterlimit: 10; fill: #488E53; fill-rule: nonzero; opacity: 0;" transform=" matrix(1 0 0 1 0 0) " stroke-linecap="round" />
  <polygon points="269.91,394.98 242.09,394.98 242.09,277.18 82.18,277.18 82.18,147.7 207.4,147.7 207.4,175.52 110,175.52 110,249.36 269.91,249.36 " style="stroke: none; stroke-width: 1; stroke-dasharray: none; stroke-linecap: butt; stroke-linejoin: miter; stroke-miterlimit: 10; fill: #57565C; fill-rule: nonzero; opacity: 1;" transform="  matrix(1 0 0 1 0 0) "/>
  <rect x="142.84" y="105.58" rx="0" ry="0" width="293.1" height="112.05" style="stroke: none; stroke-width: 1; stroke-dasharray: none; stroke-linecap: butt; stroke-linejoin: miter; stroke-miterlimit: 10; fill: #FFFFFF; fill-rule: nonzero; opacity: 1;" transform=" matrix(1 0 0 1 0 0) "/>
  <rect x="289.76" y="105.58" rx="0" ry="0" width="146.18" height="112.05" style="stroke: none; stroke-width: 1; stroke-dasharray: none; stroke-linecap: butt; stroke-linejoin: miter; stroke-miterlimit: 10; fill: #9e2a00; fill-rule: nonzero; opacity: 1;" transform=" matrix(1 0 0 1 0 0) "/>
  <rect x="225.2" y="325.97" rx="0" ry="0" width="61.59" height="160.28" style="stroke: none; stroke-width: 1; stroke-dasharray: none; stroke-linecap: butt; stroke-linejoin: miter; stroke-miterlimit: 10; fill: #edb411; fill-rule: nonzero; opacity: 1;" transform=" matrix(1 0 0 1 0 0) "/>
  <rect x="255.25" y="325.97" rx="0" ry="0" width="31.54" height="160.28" style="stroke: none; stroke-width: 1; stroke-dasharray: none; stroke-linecap: butt; stroke-linejoin: miter; stroke-miterlimit: 10; fill: #edb414; fill-rule: nonzero; opacity: 1;" transform=" matrix(1 0 0 1 0 0) "/>
</g>
<g style="stroke: none; stroke-width: 1; stroke-dasharray: none; stroke-linecap: butt; stroke-linejoin: miter; stroke-miterlimit: 10; fill: none; fill-rule: nonzero; opacity: 1;" transform="translate(323.87 163.82) rotate(28.04) scale(0.13 0.13)" >
  <circle cx="256" cy="256" r="256" style="stroke: none; stroke-width: 1; stroke-dasharray: none; stroke-linecap: butt; stroke-linejoin: miter; stroke-miterlimit: 10; fill: #F7DC4D; fill-rule: nonzero; opacity: 0;" transform="  matrix(1 0 0 1 0 0) "/>
  <path d="M 261.704 24.093 v 14.824 l -14.824 -14.824 c -38.152 0 -69.08 83.201 -69.08 185.834 h -18.779 v 23.418 l 20.883 20.883 v 7.272 l 1.73 1.73 c -17.495 22.272 -31.303 49.736 -39.888 79.901 c -11.453 40.245 -12.499 81.314 -3.043 116.216 l 41.133 41.133 C 203.896 507.966 229.477 512 256 512 c 139.433 0 252.822 -111.476 255.927 -250.163 L 285.242 35.152 l -0.007 0.007 C 277.89 28.002 269.968 24.093 261.704 24.093 z" style="stroke: none; stroke-width: 1; stroke-dasharray: none; stroke-linecap: butt; stroke-linejoin: miter; stroke-miterlimit: 10; fill: #D4B331; fill-rule: nonzero; opacity: 0;" transform=" matrix(1 0 0 1 0 0) " stroke-linecap="round" />
  <path d="M 194.202 358.057 c -8.973 31.526 -9.725 64.268 -2.066 89.832 c 0.996 3.322 2.377 7.303 4.225 11.457 h -57.656 c -9.458 -34.902 -8.41 -75.971 3.043 -116.216 c 11.916 -41.87 33.872 -78.572 61.824 -103.346 c 30.864 -27.355 94.839 -38 127.214 -28.787 v 51.376 c -19.319 -5.496 -81.254 9.55 -91.041 18.225 C 219.773 298.297 203.173 326.53 194.202 358.057 z" style="stroke: none; stroke-width: 1; stroke-dasharray: none; stroke-linecap: butt; stroke-linejoin: miter; stroke-miterlimit: 10; fill: #edb418; fill-rule: nonzero; opacity: 1;" transform=" matrix(1 0 0 1 0 0) " stroke-linecap="round" />
  <rect x="261.7" y="209.93" rx="0" ry="0" width="87.86" height="23.42" style="stroke: none; stroke-width: 1; stroke-dasharray: none; stroke-linecap: butt; stroke-linejoin: miter; stroke-miterlimit: 10; fill: #edb418; fill-rule: nonzero; opacity: 1;" transform=" matrix(1 0 0 1 0 0) "/>
  <path d="M 314.385 358.057 c 8.973 31.526 9.725 64.268 2.066 89.832 c -0.996 3.322 -2.377 7.303 -4.225 11.457 h 57.656 c 9.458 -34.902 8.41 -75.971 -3.043 -116.216 c -11.916 -41.87 -33.872 -78.572 -61.824 -103.346 c -30.864 -27.355 -92.734 -37.76 -125.109 -28.546 V 261.5 c 19.319 -5.496 79.15 10.423 88.937 19.098 C 288.813 298.297 305.414 326.53 314.385 358.057 z" style="stroke: none; stroke-width: 1; stroke-dasharray: none; stroke-linecap: butt; stroke-linejoin: miter; stroke-miterlimit: 10; fill: #edb418; fill-rule: nonzero; opacity: 1;" transform=" matrix(1 0 0 1 0 0) " stroke-linecap="round" />
  <path d="M 215.159 148.733 c 0 -17.519 14.202 -31.722 31.722 -31.722 V 24.094 c -38.152 0 -69.08 83.201 -69.08 185.834 h 69.08 v -29.473 C 229.362 180.454 215.159 166.252 215.159 148.733 z" style="stroke: none; stroke-width: 1; stroke-dasharray: none; stroke-linecap: butt; stroke-linejoin: miter; stroke-miterlimit: 10; fill: #ACACB2; fill-rule: nonzero; opacity: 1;" transform=" matrix(1 0 0 1 0 0) " stroke-linecap="round" />
  <rect x="159.02" y="209.93" rx="0" ry="0" width="87.86" height="23.42" style="stroke: none; stroke-width: 1; stroke-dasharray: none; stroke-linecap: butt; stroke-linejoin: miter; stroke-miterlimit: 10; fill: #edb418; fill-rule: nonzero; opacity: 1;" transform=" matrix(1 0 0 1 0 0) "/>
  <path d="M 293.426 148.733 c 0 -17.519 -14.202 -31.722 -31.722 -31.722 V 24.094 c 38.152 0 69.08 83.201 69.08 185.834 h -69.08 v -29.473 C 279.224 180.454 293.426 166.252 293.426 148.733 z" style="stroke: none; stroke-width: 1; stroke-dasharray: none; stroke-linecap: butt; stroke-linejoin: miter; stroke-miterlimit: 10; fill: #797882; fill-rule: nonzero; opacity: 1;" transform=" matrix(1 0 0 1 0 0) " stroke-linecap="round" />
</g>
<g style="stroke: none; stroke-width: 1; stroke-dasharray: none; stroke-linecap: butt; stroke-linejoin: miter; stroke-miterlimit: 10; fill: none; fill-rule: nonzero; opacity: 1;" transform="translate(330.1700000000001 113.81) scale(0.08 0.08)" >
  <circle cx="256" cy="256" r="256" style="stroke: none; stroke-width: 1; stroke-dasharray: none; stroke-linecap: butt; stroke-linejoin: miter; stroke-miterlimit: 10; fill: #5A7EBF; fill-rule: nonzero; opacity: 0;" transform="  matrix(1 0 0 1 0 0) "/>
  <path d="M 510.393 227.324 l -145.1 -145.099 l 0 0 l -33.971 -32.648 l 0 0 l -33.971 32.648 v 45.286 l -54.505 -54.505 l -0.022 0.022 c -3.086 -2.986 -6.224 -5.689 -10.295 -8.583 c -10.269 -7.303 -22.16 -12.475 -35.026 -14.87 l 0 0 v 32.648 l -32.648 -32.648 l 0 0 c -41.175 7.666 -72.354 43.757 -72.354 87.154 l 0 0 l 54.707 54.707 v 236.034 l 33.971 32.648 l 0 0 l 50.744 50.744 c 7.928 0.74 15.957 1.135 24.077 1.135 c 141.385 0 256 -114.615 256 -256 C 512 246.304 511.442 236.74 510.393 227.324 z" style="stroke: none; stroke-width: 1; stroke-dasharray: none; stroke-linecap: butt; stroke-linejoin: miter; stroke-miterlimit: 10; fill: #2E50A2; fill-rule: nonzero; opacity: 0;" transform=" matrix(1 0 0 1 0 0) " stroke-linecap="round" />
  <polygon points="215.15,427.47 181.18,460.12 147.21,427.47 147.21,119.52 215.15,119.52 " style="stroke: none; stroke-width: 1; stroke-dasharray: none; stroke-linecap: butt; stroke-linejoin: miter; stroke-miterlimit: 10; fill: #8A8A91; fill-rule: nonzero; opacity: 1;" transform="  matrix(1 0 0 1 0 0) "/>
  <polygon points="181.18,119.52 181.18,460.12 215.15,427.47 215.15,119.52 " style="stroke: none; stroke-width: 1; stroke-dasharray: none; stroke-linecap: butt; stroke-linejoin: miter; stroke-miterlimit: 10; fill: #797882; fill-rule: nonzero; opacity: 1;" transform="  matrix(1 0 0 1 0 0) "/>
  <polygon points="215.15,235.12 215.15,205.48 147.21,233.28 147.21,262.91 " style="stroke: none; stroke-width: 1; stroke-dasharray: none; stroke-linecap: butt; stroke-linejoin: miter; stroke-miterlimit: 10; fill: #C6C5CA; fill-rule: nonzero; opacity: 1;" transform="  matrix(1 0 0 1 0 0) "/>
  <polygon points="215.15,294.68 215.15,265.04 147.21,292.83 147.21,322.47 " style="stroke: none; stroke-width: 1; stroke-dasharray: none; stroke-linecap: butt; stroke-linejoin: miter; stroke-miterlimit: 10; fill: #C6C5CA; fill-rule: nonzero; opacity: 1;" transform="  matrix(1 0 0 1 0 0) "/>
  <polygon points="215.15,354.24 215.15,324.6 147.21,352.4 147.21,382.03 " style="stroke: none; stroke-width: 1; stroke-dasharray: none; stroke-linecap: butt; stroke-linejoin: miter; stroke-miterlimit: 10; fill: #C6C5CA; fill-rule: nonzero; opacity: 1;" transform="  matrix(1 0 0 1 0 0) "/>
  <polygon points="181.18,249.01 215.15,235.12 215.15,205.48 181.18,219.38 " style="stroke: none; stroke-width: 1; stroke-dasharray: none; stroke-linecap: butt; stroke-linejoin: miter; stroke-miterlimit: 10; fill: #8A8A91; fill-rule: nonzero; opacity: 1;" transform="  matrix(1 0 0 1 0 0) "/>
  <polygon points="181.18,308.57 215.15,294.68 215.15,265.04 181.18,278.94 " style="stroke: none; stroke-width: 1; stroke-dasharray: none; stroke-linecap: butt; stroke-linejoin: miter; stroke-miterlimit: 10; fill: #8A8A91; fill-rule: nonzero; opacity: 1;" transform="  matrix(1 0 0 1 0 0) "/>
  <polygon points="181.18,368.13 215.15,354.24 215.15,324.6 181.18,338.5 " style="stroke: none; stroke-width: 1; stroke-dasharray: none; stroke-linecap: butt; stroke-linejoin: miter; stroke-miterlimit: 10; fill: #8A8A91; fill-rule: nonzero; opacity: 1;" transform="  matrix(1 0 0 1 0 0) "/>
  <path d="M 197.503 49.577 v 48.77 h -32.648 v -48.77 c -41.175 7.666 -72.354 43.757 -72.354 87.154 h 177.357 C 269.857 93.334 238.677 57.243 197.503 49.577 z" style="stroke: none; stroke-width: 1; stroke-dasharray: none; stroke-linecap: butt; stroke-linejoin: miter; stroke-miterlimit: 10; fill: #D9D8DB; fill-rule: nonzero; opacity: 1;" transform=" matrix(1 0 0 1 0 0) " stroke-linecap="round" />
  <path d="M 197.503 49.577 v 48.77 h -16.324 v 38.384 h 88.678 C 269.857 93.334 238.677 57.243 197.503 49.577 z" style="stroke: none; stroke-width: 1; stroke-dasharray: none; stroke-linecap: butt; stroke-linejoin: miter; stroke-miterlimit: 10; fill: #8A8A91; fill-rule: nonzero; opacity: 1;" transform=" matrix(1 0 0 1 0 0) " stroke-linecap="round" />
  <polygon points="365.29,82.22 331.32,49.58 297.35,82.22 297.35,390.17 365.29,390.17 " style="stroke: none; stroke-width: 1; stroke-dasharray: none; stroke-linecap: butt; stroke-linejoin: miter; stroke-miterlimit: 10; fill: #8A8A91; fill-rule: nonzero; opacity: 1;" transform="  matrix(1 0 0 1 0 0) "/>
  <polygon points="331.32,390.17 331.32,49.58 365.29,82.22 365.29,390.17 " style="stroke: none; stroke-width: 1; stroke-dasharray: none; stroke-linecap: butt; stroke-linejoin: miter; stroke-miterlimit: 10; fill: #797882; fill-rule: nonzero; opacity: 1;" transform="  matrix(1 0 0 1 0 0) "/>
  <polygon points="365.29,274.58 365.29,304.22 297.35,276.42 297.35,246.79 " style="stroke: none; stroke-width: 1; stroke-dasharray: none; stroke-linecap: butt; stroke-linejoin: miter; stroke-miterlimit: 10; fill: #C6C5CA; fill-rule: nonzero; opacity: 1;" transform="  matrix(1 0 0 1 0 0) "/>
  <polygon points="365.29,215.02 365.29,244.66 297.35,216.86 297.35,187.23 " style="stroke: none; stroke-width: 1; stroke-dasharray: none; stroke-linecap: butt; stroke-linejoin: miter; stroke-miterlimit: 10; fill: #C6C5CA; fill-rule: nonzero; opacity: 1;" transform="  matrix(1 0 0 1 0 0) "/>
  <polygon points="365.29,155.46 365.29,185.1 297.35,157.3 297.35,127.67 " style="stroke: none; stroke-width: 1; stroke-dasharray: none; stroke-linecap: butt; stroke-linejoin: miter; stroke-miterlimit: 10; fill: #C6C5CA; fill-rule: nonzero; opacity: 1;" transform="  matrix(1 0 0 1 0 0) "/>
  <polygon points="331.32,260.69 365.29,274.58 365.29,304.22 331.32,290.32 " style="stroke: none; stroke-width: 1; stroke-dasharray: none; stroke-linecap: butt; stroke-linejoin: miter; stroke-miterlimit: 10; fill: #8A8A91; fill-rule: nonzero; opacity: 1;" transform="  matrix(1 0 0 1 0 0) "/>
  <polygon points="331.32,201.13 365.29,215.02 365.29,244.66 331.32,230.76 " style="stroke: none; stroke-width: 1; stroke-dasharray: none; stroke-linecap: butt; stroke-linejoin: miter; stroke-miterlimit: 10; fill: #8A8A91; fill-rule: nonzero; opacity: 1;" transform="  matrix(1 0 0 1 0 0) "/>
  <polygon points="331.32,141.56 365.29,155.46 365.29,185.1 331.32,171.2 " style="stroke: none; stroke-width: 1; stroke-dasharray: none; stroke-linecap: butt; stroke-linejoin: miter; stroke-miterlimit: 10; fill: #8A8A91; fill-rule: nonzero; opacity: 1;" transform="  matrix(1 0 0 1 0 0) "/>
  <path d="M 347.646 460.121 v -48.77 h -32.648 v 48.77 c -41.174 -7.666 -72.355 -43.757 -72.355 -87.155 H 420 C 420 416.364 388.821 452.455 347.646 460.121 z" style="stroke: none; stroke-width: 1; stroke-dasharray: none; stroke-linecap: butt; stroke-linejoin: miter; stroke-miterlimit: 10; fill: #D9D8DB; fill-rule: nonzero; opacity: 1;" transform=" matrix(1 0 0 1 0 0) " stroke-linecap="round" />
  <path d="M 347.646 460.121 v -48.77 h -16.324 v -38.384 H 420 C 420 416.364 388.821 452.455 347.646 460.121 z" style="stroke: none; stroke-width: 1; stroke-dasharray: none; stroke-linecap: butt; stroke-linejoin: miter; stroke-miterlimit: 10; fill: #8A8A91; fill-rule: nonzero; opacity: 1;" transform=" matrix(1 0 0 1 0 0) " stroke-linecap="round" />
</g>
<g style="stroke: none; stroke-width: 1; stroke-dasharray: none; stroke-linecap: butt; stroke-linejoin: miter; stroke-miterlimit: 10; fill: none; fill-rule: nonzero; opacity: 1;" transform="translate(259.51 280.78000000000003) scale(0.21 0.21)" >
  <rect x="0" y="163.51" rx="0" ry="0" width="132.13" height="33.03" style="stroke: none; stroke-width: 1; stroke-dasharray: none; stroke-linecap: butt; stroke-linejoin: miter; stroke-miterlimit: 10; fill: #C6C5CB; fill-rule: nonzero; opacity: 1;" transform=" matrix(1 0 0 1 0 0) "/>
  <rect x="0" y="163.51" rx="0" ry="0" width="132.13" height="16.52" style="stroke: none; stroke-width: 1; stroke-dasharray: none; stroke-linecap: butt; stroke-linejoin: miter; stroke-miterlimit: 10; fill: #E0E0E2; fill-rule: nonzero; opacity: 1;" transform=" matrix(1 0 0 1 0 0) "/>
  <path d="M 236.731 129.376 v 99.097 H 136.299 l -20.686 -20.686 v -57.726 l 20.686 -20.686 h 100.432 V 129.376 z" style="stroke: none; stroke-width: 1; stroke-dasharray: none; stroke-linecap: butt; stroke-linejoin: miter; stroke-miterlimit: 10; fill: #898890; fill-rule: nonzero; opacity: 1;" transform=" matrix(1 0 0 1 0 0) " stroke-linecap="round" />
  <polygon points="115.61,150.06 115.61,180.03 236.73,180.03 236.73,129.38 136.3,129.38 " style="stroke: none; stroke-width: 1; stroke-dasharray: none; stroke-linecap: butt; stroke-linejoin: miter; stroke-miterlimit: 10; fill: #57565C; fill-rule: nonzero; opacity: 1;" transform="  matrix(1 0 0 1 0 0) "/>
  <path d="M 401.892 239.484 v 99.097 h -16.516 c -45.535 0 -82.581 -37.046 -82.581 -82.581 v -16.516 H 401.892 z M 368.86 302.719 v -30.202 h -30.202 C 343.642 286.575 354.802 297.734 368.86 302.719 z" style="stroke: none; stroke-width: 1; stroke-dasharray: none; stroke-linecap: butt; stroke-linejoin: miter; stroke-miterlimit: 10; fill: #898890; fill-rule: nonzero; opacity: 1;" transform=" matrix(1 0 0 1 0 0) " stroke-linecap="round" />
  <path d="M 478.968 239.484 v 187.183 H 368.86 V 239.484 H 478.968 z" style="stroke: none; stroke-width: 1; stroke-dasharray: none; stroke-linecap: butt; stroke-linejoin: miter; stroke-miterlimit: 10; fill: #edb410; fill-rule: nonzero; opacity: 1;" transform=" matrix(1 0 0 1 0 0) " stroke-linecap="round" />
  <path d="M 478.968 239.484 v 187.183 h -55.054 V 239.484 H 478.968 z" style="stroke: none; stroke-width: 1; stroke-dasharray: none; stroke-linecap: butt; stroke-linejoin: miter; stroke-miterlimit: 10; fill: #edb418; fill-rule: nonzero; opacity: 1;" transform=" matrix(1 0 0 1 0 0) " stroke-linecap="round" />
  <path d="M 512 128.041 V 229.81 l -42.707 42.706 H 246.406 l -42.707 -42.707 V 128.04 l 42.707 -42.706 h 222.887 L 512 128.041 z" style="stroke: none; stroke-width: 1; stroke-dasharray: none; stroke-linecap: butt; stroke-linejoin: miter; stroke-miterlimit: 10; fill: #edb410; fill-rule: nonzero; opacity: 1;" transform=" matrix(1 0 0 1 0 0) " stroke-linecap="round" />
  <polygon points="203.7,128.04 203.7,180.03 512,180.03 512,128.04 469.29,85.33 246.41,85.33 " style="stroke: none; stroke-width: 1; stroke-dasharray: none; stroke-linecap: butt; stroke-linejoin: miter; stroke-miterlimit: 10; fill: #edb417; fill-rule: nonzero; opacity: 1;" transform="  matrix(1 0 0 1 0 0) "/>
  <rect x="307.9" y="162.41" rx="0" ry="0" width="77.86" height="33.03" style="stroke: none; stroke-width: 1; stroke-dasharray: none; stroke-linecap: butt; stroke-linejoin: miter; stroke-miterlimit: 10; fill: #C6C5CB; fill-rule: nonzero; opacity: 1;" transform=" matrix(-0.7071 0.7071 -0.7071 -0.7071 718.5984 60.198) "/>
  <rect x="384.98" y="162.41" rx="0" ry="0" width="77.86" height="33.03" style="stroke: none; stroke-width: 1; stroke-dasharray: none; stroke-linecap: butt; stroke-linejoin: miter; stroke-miterlimit: 10; fill: #C6C5CB; fill-rule: nonzero; opacity: 1;" transform=" matrix(-0.7071 0.7071 -0.7071 -0.7071 850.1746 5.7039) "/>
  <polygon points="399.46,180.03 446.17,180.03 463.12,163.08 439.76,139.72 " style="stroke: none; stroke-width: 1; stroke-dasharray: none; stroke-linecap: butt; stroke-linejoin: miter; stroke-miterlimit: 10; fill: #E0E0E2; fill-rule: nonzero; opacity: 1;" transform="  matrix(1 0 0 1 0 0) "/>
  <polygon points="322.38,180.03 369.1,180.03 386.04,163.08 362.69,139.72 " style="stroke: none; stroke-width: 1; stroke-dasharray: none; stroke-linecap: butt; stroke-linejoin: miter; stroke-miterlimit: 10; fill: #E0E0E2; fill-rule: nonzero; opacity: 1;" transform="  matrix(1 0 0 1 0 0) "/>
</g>
<g style="stroke: none; stroke-width: 1; stroke-dasharray: none; stroke-linecap: butt; stroke-linejoin: miter; stroke-miterlimit: 10; fill: none; fill-rule: nonzero; opacity: 1;" transform="translate(288.98 187.60999999999999) rotate(88.98) scale(0.1 0.1)" >
  <path d="M 274.447 80.725 l 120.497 120.497 v 71.719 h -47.812 v 47.812 h -47.812 v 47.812 h -47.812 v 47.812 h -47.812 v 47.812 h -47.812 v 47.812 H 84.168 l -70.652 -70.652 L 229.51 125.662 L 274.447 80.725 z" style="stroke: none; stroke-width: 1; stroke-dasharray: none; stroke-linecap: butt; stroke-linejoin: miter; stroke-miterlimit: 10; fill: #C6C5CB; fill-rule: nonzero; opacity: 1;" transform=" matrix(1 0 0 1 0 0) " stroke-linecap="round" />
  <polygon points="13.39,441.47 35.44,463.51 346.21,152.74 274.32,80.85 229.39,125.79 " style="stroke: none; stroke-width: 1; stroke-dasharray: none; stroke-linecap: butt; stroke-linejoin: miter; stroke-miterlimit: 10; fill: #E0E0E2; fill-rule: nonzero; opacity: 1;" transform="  matrix(1 0 0 1 0 0) "/>
  <path d="M 401.947 256.036 l 81.832 -81.832 c 19.772 -19.772 19.772 -51.945 0 -71.719 L 396.123 14.83 c -19.773 -19.773 -51.945 -19.772 -71.719 0 l -81.832 81.832 L 401.947 256.036 z M 366.088 92.678 l 31.874 31.874 c 2.196 2.196 2.196 5.772 0 7.969 s -5.772 2.196 -7.969 0 l -31.874 -31.874 c -2.196 -2.196 -2.196 -5.772 0 -7.969 C 360.316 90.481 363.89 90.481 366.088 92.678 z" style="stroke: none; stroke-width: 1; stroke-dasharray: none; stroke-linecap: butt; stroke-linejoin: miter; stroke-miterlimit: 10; fill: #CD7400; fill-rule: nonzero; opacity: 1;" transform=" matrix(1 0 0 1 0 0) " stroke-linecap="round" />
  <path d="M 322.307 176.641 l 55.78 -55.78 l -20.092 -20.092 c -2.196 -2.196 -2.196 -5.772 0 -7.969 s 5.772 -2.196 7.969 0 l 20.092 20.092 l 53.942 -53.942 L 396 14.952 c -19.773 -19.773 -51.945 -19.772 -71.719 0 L 242.45 96.784 L 322.307 176.641 z" style="stroke: none; stroke-width: 1; stroke-dasharray: none; stroke-linecap: butt; stroke-linejoin: miter; stroke-miterlimit: 10; fill: #FF9911; fill-rule: nonzero; opacity: 1;" transform=" matrix(1 0 0 1 0 0) " stroke-linecap="round" />
  <path d="M 389.994 68.772 l 31.874 31.874 c 15.378 15.378 15.378 40.402 0 55.78 s -40.402 15.378 -55.78 0 l -31.874 -31.874 c -15.378 -15.378 -15.378 -40.402 0 -55.78 C 349.592 53.393 374.615 53.393 389.994 68.772 z M 389.994 132.521 c 2.196 2.196 5.772 2.196 7.969 0 s 2.196 -5.772 0 -7.969 l -31.874 -31.874 c -2.196 -2.196 -5.772 -2.196 -7.969 0 c -2.196 2.196 -2.196 5.772 0 7.969 L 389.994 132.521 z" style="stroke: none; stroke-width: 1; stroke-dasharray: none; stroke-linecap: butt; stroke-linejoin: miter; stroke-miterlimit: 10; fill: #013328; fill-rule: nonzero; opacity: 1;" transform=" matrix(1 0 0 1 0 0) " stroke-linecap="round" />
  <path d="M 334.09 124.675 l 20.092 20.092 l 23.906 -23.906 l -20.092 -20.092 c -2.196 -2.196 -2.196 -5.772 0 -7.969 c 2.196 -2.196 5.772 -2.196 7.969 0 l 20.092 20.092 l 23.906 -23.906 l -20.092 -20.092 c -15.378 -15.378 -40.402 -15.378 -55.78 0 C 318.712 84.273 318.711 109.297 334.09 124.675 z" style="stroke: none; stroke-width: 1; stroke-dasharray: none; stroke-linecap: butt; stroke-linejoin: miter; stroke-miterlimit: 10; fill: #013320; fill-rule: nonzero; opacity: 1;" transform=" matrix(1 0 0 1 0 0) " stroke-linecap="round" />
</g>
<g style="stroke: none; stroke-width: 1; stroke-dasharray: none; stroke-linecap: butt; stroke-linejoin: miter; stroke-miterlimit: 10; fill: none; fill-rule: nonzero; opacity: 1;" transform="translate(135.88000000000002 90.63000000000001) scale(4.12 2.83)" >
  <path d="M 0 0 v 60 h 60 V 0 H 0 z M 58 58 H 2 V 2 h 56 V 58 z" style="stroke: none; stroke-width: 1; stroke-dasharray: none; stroke-linecap: butt; stroke-linejoin: miter; stroke-miterlimit: 10; fill: rgb(0,0,0); fill-rule: nonzero; opacity: 1;" transform=" matrix(1 0 0 1 0 0) " stroke-linecap="round" />
</g>
<g style="stroke: none; stroke-width: 1; stroke-dasharray: none; stroke-linecap: butt; stroke-linejoin: miter; stroke-miterlimit: 10; fill: none; fill-rule: nonzero; opacity: 1;" transform="translate(208.07000000000005 139.95999999999998) rotate(31.83) scale(0.18 0.18)" >
  <circle cx="256" cy="256" r="256" style="stroke: none; stroke-width: 1; stroke-dasharray: none; stroke-linecap: butt; stroke-linejoin: miter; stroke-miterlimit: 10; fill: #EA971E; fill-rule: nonzero; opacity: 0;" transform="  matrix(1 0 0 1 0 0) "/>
  <path d="M 152.242 278.872 l 72.577 72.577 c -2.95 30.51 -8.142 85.919 -8.141 98.003 c 0 10.552 4.276 20.104 11.192 27.019 l 35.419 35.419 c 130.531 -3.651 236.61 -105.009 247.729 -233.54 L 254.48 21.812 l 0 0 L 152.242 278.872 z" style="stroke: none; stroke-width: 1; stroke-dasharray: none; stroke-linecap: butt; stroke-linejoin: miter; stroke-miterlimit: 10; fill: #A16125; fill-rule: nonzero; opacity: 0;" transform=" matrix(1 0 0 1 0 0) " stroke-linecap="round" />
  <polygon points="152.24,278.87 254.48,21.81 356.72,278.87 " style="stroke: none; stroke-width: 1; stroke-dasharray: none; stroke-linecap: butt; stroke-linejoin: miter; stroke-miterlimit: 10; fill: #C6C5CA; fill-rule: nonzero; opacity: 1;" transform="  matrix(1 0 0 1 0 0) "/>
  <polygon points="254.89,278.87 356.72,278.87 254.89,22.84 " style="stroke: none; stroke-width: 1; stroke-dasharray: none; stroke-linecap: butt; stroke-linejoin: miter; stroke-miterlimit: 10; fill: #8A8A91; fill-rule: nonzero; opacity: 1;" transform="  matrix(1 0 0 1 0 0) "/>
  <rect x="243.51" y="228.73" rx="0" ry="0" width="22.82" height="137.46" style="stroke: none; stroke-width: 1; stroke-dasharray: none; stroke-linecap: butt; stroke-linejoin: miter; stroke-miterlimit: 10; fill: #FFFFFF; fill-rule: nonzero; opacity: 1;" transform=" matrix(1 0 0 1 0 0) "/>
  <rect x="254.89" y="228.73" rx="0" ry="0" width="11.44" height="137.46" style="stroke: none; stroke-width: 1; stroke-dasharray: none; stroke-linecap: butt; stroke-linejoin: miter; stroke-miterlimit: 10; fill: #C6C5CA; fill-rule: nonzero; opacity: 1;" transform=" matrix(1 0 0 1 0 0) "/>
  <path d="M 284.079 331.153 h -57.271 c 0 0 -10.13 101.422 -10.13 118.3 c 0 21.102 17.106 38.209 38.209 38.209 s 38.209 -17.106 38.209 -38.209 C 293.095 432.574 284.079 331.153 284.079 331.153 z" style="stroke: none; stroke-width: 1; stroke-dasharray: none; stroke-linecap: butt; stroke-linejoin: miter; stroke-miterlimit: 10; fill: #9e2a00; fill-rule: nonzero; opacity: 1;" transform=" matrix(1 0 0 1 0 0) " stroke-linecap="round" />
  <path d="M 284.079 331.153 h -29.192 v 156.509 c 21.102 0 38.209 -17.106 38.209 -38.209 C 293.095 432.574 284.079 331.153 284.079 331.153 z" style="stroke: none; stroke-width: 1; stroke-dasharray: none; stroke-linecap: butt; stroke-linejoin: miter; stroke-miterlimit: 10; fill: #eb3e05; fill-rule: nonzero; opacity: 1;" transform=" matrix(1 0 0 1 0 0) " stroke-linecap="round" />
</g>
<g style="stroke: none; stroke-width: 1; stroke-dasharray: none; stroke-linecap: butt; stroke-linejoin: miter; stroke-miterlimit: 10; fill: none; fill-rule: nonzero; opacity: 1;" transform="translate(287.59000000000003 423.46000000000004) rotate(208.38) scale(0.19 0.19)" >
  <circle cx="256" cy="256" r="256" style="stroke: none; stroke-width: 1; stroke-dasharray: none; stroke-linecap: butt; stroke-linejoin: miter; stroke-miterlimit: 10; fill: #5A7EBF; fill-rule: nonzero; opacity: 0;" transform="  matrix(1 0 0 1 0 0) "/>
  <path d="M 438.101 220.044 h -25.229 L 389.127 196.3 h -98.392 l -33.762 -33.762 l -45.457 18.655 L 122.74 92.416 H 89.348 v 82.018 c -13.778 1.981 -27.234 6.438 -39.808 13.326 l 10.694 19.524 l 11.569 11.569 c -26.918 12.814 -45.528 40.259 -45.528 72.057 c 0 22.027 8.928 41.968 23.363 56.403 l 0 0 l 160.604 160.603 C 225.091 510.596 240.381 512 256 512 c 132.646 0 241.726 -100.886 254.703 -230.113 l -23.629 -23.629 h -10.76 L 438.101 220.044 z" style="stroke: none; stroke-width: 1; stroke-dasharray: none; stroke-linecap: butt; stroke-linejoin: miter; stroke-miterlimit: 10; fill: #2E50A2; fill-rule: nonzero; opacity: 0;" transform=" matrix(1 0 0 1 0 0) " stroke-linecap="round" />
  <rect x="435.13" y="258.26" rx="0" ry="0" width="51.94" height="22.26" style="stroke: none; stroke-width: 1; stroke-dasharray: none; stroke-linecap: butt; stroke-linejoin: miter; stroke-miterlimit: 10; fill: #57565C; fill-rule: nonzero; opacity: 1;" transform=" matrix(1 0 0 1 0 0) "/>
  <rect x="368.35" y="220.05" rx="0" ry="0" width="69.75" height="98.69" style="stroke: none; stroke-width: 1; stroke-dasharray: none; stroke-linecap: butt; stroke-linejoin: miter; stroke-miterlimit: 10; fill: #edb416; fill-rule: nonzero; opacity: 1;" transform=" matrix(1 0 0 1 0 0) "/>
  <rect x="438.11" y="241.93" rx="0" ry="0" width="16.7" height="55.65" style="stroke: none; stroke-width: 1; stroke-dasharray: none; stroke-linecap: butt; stroke-linejoin: miter; stroke-miterlimit: 10; fill: #3E3E42; fill-rule: nonzero; opacity: 1;" transform=" matrix(1 0 0 1 0 0) "/>
  <rect x="368.35" y="269.76" rx="0" ry="0" width="69.75" height="48.97" style="stroke: none; stroke-width: 1; stroke-dasharray: none; stroke-linecap: butt; stroke-linejoin: miter; stroke-miterlimit: 10; fill: #edb412; fill-rule: nonzero; opacity: 1;" transform=" matrix(1 0 0 1 0 0) "/>
  <circle cx="106.042" cy="290.902" r="79.772" style="stroke: none; stroke-width: 1; stroke-dasharray: none; stroke-linecap: butt; stroke-linejoin: miter; stroke-miterlimit: 10; fill: #C6C5CA; fill-rule: nonzero; opacity: 1;" transform="  matrix(1 0 0 1 0 0) "/>
  <path d="M 106.043 211.14 v 159.536 c 44.054 0 79.768 -35.713 79.768 -79.768 C 185.81 246.853 150.097 211.14 106.043 211.14 z" style="stroke: none; stroke-width: 1; stroke-dasharray: none; stroke-linecap: butt; stroke-linejoin: miter; stroke-miterlimit: 10; fill: #ACACB2; fill-rule: nonzero; opacity: 1;" transform=" matrix(1 0 0 1 0 0) " stroke-linecap="round" />
  <path d="M 176.165 196.299 v 3.836 c 26.493 21.203 43.699 53.723 43.699 89.66 c 0 18.888 -4.757 36.829 -13.113 52.684 h 182.376 V 196.299 H 176.165 z" style="stroke: none; stroke-width: 1; stroke-dasharray: none; stroke-linecap: butt; stroke-linejoin: miter; stroke-miterlimit: 10; fill: #edb412; fill-rule: nonzero; opacity: 1;" transform=" matrix(1 0 0 1 0 0) " stroke-linecap="round" />
  <circle cx="106.038" cy="290.908" r="31.908" style="stroke: none; stroke-width: 1; stroke-dasharray: none; stroke-linecap: butt; stroke-linejoin: miter; stroke-miterlimit: 10; fill: #E1E1E3; fill-rule: nonzero; opacity: 1;" transform="  matrix(1 0 0 1 0 0) "/>
  <path d="M 137.949 290.907 c 0 -17.622 -14.286 -31.908 -31.908 -31.908 v 63.814 C 123.665 322.815 137.949 308.53 137.949 290.907 z" style="stroke: none; stroke-width: 1; stroke-dasharray: none; stroke-linecap: butt; stroke-linejoin: miter; stroke-miterlimit: 10; fill: #D9D8DB; fill-rule: nonzero; opacity: 1;" transform=" matrix(1 0 0 1 0 0) " stroke-linecap="round" />
  <circle cx="106.03899999999999" cy="290.909" r="15.969" style="stroke: none; stroke-width: 1; stroke-dasharray: none; stroke-linecap: butt; stroke-linejoin: miter; stroke-miterlimit: 10; fill: #797882; fill-rule: nonzero; opacity: 1;" transform="  matrix(1 0 0 1 0 0) "/>
  <path d="M 122.012 290.907 c 0 -8.819 -7.149 -15.969 -15.969 -15.969 v 31.937 C 114.862 306.876 122.012 299.727 122.012 290.907 z" style="stroke: none; stroke-width: 1; stroke-dasharray: none; stroke-linecap: butt; stroke-linejoin: miter; stroke-miterlimit: 10; fill: #57565C; fill-rule: nonzero; opacity: 1;" transform=" matrix(1 0 0 1 0 0) " stroke-linecap="round" />
  <polygon points="256.97,162.54 192.49,189 192.49,196.3 256.97,196.3 " style="stroke: none; stroke-width: 1; stroke-dasharray: none; stroke-linecap: butt; stroke-linejoin: miter; stroke-miterlimit: 10; fill: #E25F3F; fill-rule: nonzero; opacity: 1;" transform="  matrix(1 0 0 1 0 0) "/>
  <path d="M 218.055 269.759 c 1.185 6.519 1.808 13.215 1.808 20.035 c 0 18.888 -4.757 36.829 -13.113 52.684 h 182.375 v -72.718 H 218.055 z" style="stroke: none; stroke-width: 1; stroke-dasharray: none; stroke-linecap: butt; stroke-linejoin: miter; stroke-miterlimit: 10; fill: #edb416; fill-rule: nonzero; opacity: 1;" transform=" matrix(1 0 0 1 0 0) " stroke-linecap="round" />
  <path d="M 162.547 394.057 l -10.694 -19.524 c 46.111 -25.258 63.076 -83.324 37.817 -129.435 c -12.236 -22.338 -32.439 -38.573 -56.885 -45.715 s -50.213 -4.338 -72.549 7.899 L 49.54 187.759 c 27.552 -15.093 59.332 -18.551 89.488 -9.742 c 30.155 8.81 55.072 28.836 70.166 56.388 c 15.093 27.552 18.552 59.333 9.741 89.488 C 210.124 354.046 190.099 378.965 162.547 394.057 z" style="stroke: none; stroke-width: 1; stroke-dasharray: none; stroke-linecap: butt; stroke-linejoin: miter; stroke-miterlimit: 10; fill: #3E3E42; fill-rule: nonzero; opacity: 1;" transform=" matrix(1 0 0 1 0 0) " stroke-linecap="round" />
  <rect x="89.34" y="92.42" rx="0" ry="0" width="33.39" height="91.99" style="stroke: none; stroke-width: 1; stroke-dasharray: none; stroke-linecap: butt; stroke-linejoin: miter; stroke-miterlimit: 10; fill: #3E3E42; fill-rule: nonzero; opacity: 1;" transform=" matrix(1 0 0 1 0 0) "/>
</g>
<g style="stroke: none; stroke-width: 1; stroke-dasharray: none; stroke-linecap: butt; stroke-linejoin: miter; stroke-miterlimit: 10; fill: none; fill-rule: nonzero; opacity: 1;" transform="translate(93.69000000000008 10) scale(0.63 0.96)" >
  <path d="M 0 0 v 533.333 h 533.333 V 0 H 0 z M 500 500 H 33.333 V 33.333 H 500 V 500 z" style="stroke: none; stroke-width: 1; stroke-dasharray: none; stroke-linecap: butt; stroke-linejoin: miter; stroke-miterlimit: 10; fill: rgb(0,0,0); fill-rule: nonzero; opacity: 1;" transform="" stroke-linecap="round" />
</g>
<g style="stroke: none; stroke-width: 1; stroke-dasharray: none; stroke-linecap: butt; stroke-linejoin: miter; stroke-miterlimit: 10; fill: none; fill-rule: nonzero; opacity: 1;" transform="translate(136.9300000000001 272.09000000000003) scale(4.1 2.76)" >
  <path d="M 0 0 v 60 h 60 V 0 H 0 z M 58 58 H 2 V 2 h 56 V 58 z" style="stroke: none; stroke-width: 1; stroke-dasharray: none; stroke-linecap: butt; stroke-linejoin: miter; stroke-miterlimit: 10; fill: rgb(0,0,0); fill-rule: nonzero; opacity: 1;" transform=" matrix(1 0 0 1 0 0) " stroke-linecap="round" />
</g>
</svg>